<svg width="920" height="117" viewBox="0 0 920 117" fill="none" xmlns="http://www.w3.org/2000/svg">
<path d="M45.12 116.48C31.2533 116.48 20.2667 112.64 12.16 104.96C4.05333 97.1734 1.19209e-07 86.08 1.19209e-07 71.68V44.8C1.19209e-07 30.4 4.05333 19.36 12.16 11.68C20.2667 3.89335 31.2533 1.33514e-05 45.12 1.33514e-05C58.88 1.33514e-05 69.4933 3.78668 76.96 11.36C84.5333 18.8267 88.32 29.12 88.32 42.24V43.2H67.52V41.6C67.52 34.9867 65.6533 29.5467 61.92 25.28C58.2933 21.0133 52.6933 18.88 45.12 18.88C37.6533 18.88 31.7867 21.1734 27.52 25.76C23.2533 30.3467 21.12 36.5867 21.12 44.48V72C21.12 79.7867 23.2533 86.0267 27.52 90.72C31.7867 95.3067 37.6533 97.6 45.12 97.6C52.6933 97.6 58.2933 95.4667 61.92 91.2C65.6533 86.8267 67.52 81.3867 67.52 74.88V72H88.32V74.24C88.32 87.36 84.5333 97.7067 76.96 105.28C69.4933 112.747 58.88 116.48 45.12 116.48ZM131.516 114.24V75.68L93.4363 2.24001H116.956L140.636 50.24H143.516L167.196 2.24001H190.716L152.636 75.68V114.24H131.516ZM199.36 114.24V95.68H214.08V20.8H199.36V2.24001H256.96C263.787 2.24001 269.707 3.41335 274.72 5.76002C279.84 8.00002 283.787 11.2534 286.56 15.52C289.44 19.68 290.88 24.6934 290.88 30.56V32.16C290.88 37.28 289.92 41.4933 288 44.8C286.08 48 283.787 50.5067 281.12 52.32C278.56 54.0267 276.107 55.2534 273.76 56V58.88C276.107 59.52 278.667 60.7467 281.44 62.56C284.213 64.2667 286.56 66.7734 288.48 70.08C290.507 73.3867 291.52 77.7067 291.52 83.04V84.64C291.52 90.8267 290.08 96.16 287.2 100.64C284.32 105.013 280.32 108.373 275.2 110.72C270.187 113.067 264.32 114.24 257.6 114.24H199.36ZM235.2 95.04H255.04C259.627 95.04 263.307 93.92 266.08 91.68C268.96 89.44 270.4 86.24 270.4 82.08V80.48C270.4 76.32 269.013 73.12 266.24 70.88C263.467 68.64 259.733 67.52 255.04 67.52H235.2V95.04ZM235.2 48.32H254.72C259.093 48.32 262.667 47.2 265.44 44.96C268.32 42.72 269.76 39.6267 269.76 35.68V34.08C269.76 30.0267 268.373 26.9333 265.6 24.8C262.827 22.56 259.2 21.44 254.72 21.44H235.2V48.32ZM308.81 114.24V2.24001H380.81V21.44H329.93V48.16H376.33V67.36H329.93V95.04H381.77V114.24H308.81ZM397.404 114.24V2.24001H446.044C453.084 2.24001 459.217 3.46668 464.444 5.92001C469.67 8.37335 473.724 11.84 476.604 16.32C479.484 20.8 480.924 26.08 480.924 32.16V34.08C480.924 40.8 479.324 46.24 476.124 50.4C472.924 54.56 468.977 57.6 464.284 59.52V62.4C468.55 62.6134 471.857 64.1067 474.204 66.88C476.55 69.5467 477.724 73.12 477.724 77.6V114.24H456.604V80.64C456.604 78.08 455.91 76 454.524 74.4C453.244 72.8 451.057 72 447.964 72H418.524V114.24H397.404ZM418.524 52.8H443.804C448.817 52.8 452.71 51.4667 455.484 48.8C458.364 46.0267 459.804 42.4 459.804 37.92V36.32C459.804 31.84 458.417 28.2667 455.644 25.6C452.87 22.8267 448.924 21.44 443.804 21.44H418.524V52.8ZM498.497 114.24V2.24001H538.658L560.898 99.84H563.778V2.24001H584.578V114.24H544.418L522.178 16.64H519.298V114.24H498.497ZM605.685 114.24V2.24001H677.685V21.44H626.805V48.16H673.205V67.36H626.805V95.04H678.645V114.24H605.685ZM703.239 114.24L688.519 2.24001H709.479L720.359 99.52H723.239L737.319 2.24001H773.799L787.879 99.52H790.759L801.639 2.24001H822.599L807.879 114.24H771.399L756.999 14.72H754.119L739.719 114.24H703.239ZM876.909 116.48C868.269 116.48 860.642 114.933 854.029 111.84C847.415 108.747 842.242 104.32 838.509 98.56C834.775 92.8 832.909 85.8667 832.909 77.76V73.28H853.709V77.76C853.709 84.48 855.789 89.5467 859.949 92.96C864.109 96.2667 869.762 97.92 876.909 97.92C884.162 97.92 889.549 96.48 893.069 93.6C896.695 90.72 898.509 87.04 898.509 82.56C898.509 79.4667 897.602 76.96 895.789 75.04C894.082 73.12 891.522 71.5734 888.109 70.4C884.802 69.12 880.749 67.9467 875.949 66.88L872.269 66.08C864.589 64.3734 857.975 62.24 852.429 59.68C846.989 57.0134 842.775 53.5467 839.789 49.28C836.909 45.0134 835.469 39.4667 835.469 32.64C835.469 25.8134 837.069 20 840.269 15.2C843.575 10.2934 848.162 6.56002 854.029 4.00002C860.002 1.33335 866.989 1.33514e-05 874.989 1.33514e-05C882.989 1.33514e-05 890.082 1.38668 896.269 4.16002C902.562 6.82668 907.469 10.88 910.989 16.32C914.615 21.6533 916.429 28.3733 916.429 36.48V41.28H895.629V36.48C895.629 32.2133 894.775 28.8 893.069 26.24C891.469 23.5733 889.122 21.6533 886.029 20.48C882.935 19.2 879.255 18.56 874.989 18.56C868.589 18.56 863.842 19.7867 860.749 22.24C857.762 24.5867 856.269 27.84 856.269 32C856.269 34.7734 856.962 37.12 858.349 39.04C859.842 40.96 862.029 42.56 864.909 43.84C867.789 45.12 871.469 46.24 875.949 47.2L879.629 48C887.629 49.7067 894.562 51.8933 900.429 54.56C906.402 57.2267 911.042 60.7467 914.349 65.12C917.655 69.4934 919.309 75.0934 919.309 81.92C919.309 88.7467 917.549 94.7734 914.029 100C910.615 105.12 905.709 109.173 899.309 112.16C893.015 115.04 885.549 116.48 876.909 116.48Z" fill="black"/>
</svg>
